<svg width="24" height="24" viewBox="0 0 24 24" fill="none" xmlns="http://www.w3.org/2000/svg">
<g clip-path="url(#clip0_789_61)">
<path fill-rule="evenodd" clip-rule="evenodd" d="M13.5856 3.79569C13.21 4.27609 12.6098 4.50016 12 4.50016C11.3902 4.50016 10.79 4.27609 10.4144 3.79569L9.37 2.46016C9.22 2.27016 8.95 2.22016 8.73 2.34016L5.27 4.34016C5.11 4.43016 5.02 4.60016 5.02 4.78016C5.02 4.84016 5.03 4.90016 5.05 4.95016L5.68527 6.53198C5.9113 7.0948 5.80951 7.72642 5.50427 8.25052C5.19847 8.77558 4.70064 9.18312 4.09917 9.26937L2.42 9.51016C2.18 9.54016 2 9.75016 2 10.0002V14.0002C2 14.2502 2.18 14.4602 2.42 14.4902L4.09255 14.73C4.69812 14.8168 5.20143 15.2285 5.51155 15.7558C5.81728 16.2757 5.91274 16.9019 5.68796 17.4616L5.05 19.0502C5.03 19.1102 5.02 19.1702 5.02 19.2302C5.02 19.4002 5.11 19.5702 5.27 19.6602L8.73 21.6602C8.95 21.7902 9.22 21.7302 9.37 21.5402L10.4144 20.2046C10.79 19.7242 11.3902 19.5002 12 19.5002C12.6098 19.5002 13.21 19.7242 13.5856 20.2046L14.63 21.5402C14.78 21.7302 15.05 21.7802 15.27 21.6602L18.73 19.6602C18.89 19.5702 18.98 19.4002 18.98 19.2202C18.98 19.1602 18.97 19.1002 18.95 19.0502L18.3147 17.4683C18.0887 16.9055 18.1905 16.2739 18.4957 15.7498C18.8015 15.2247 19.2994 14.8172 19.9008 14.7309L21.58 14.4902C21.82 14.4602 22 14.2502 22 14.0002V10.0002C22 9.75016 21.82 9.54016 21.58 9.51016L19.9074 9.27032C19.3019 9.18349 18.7986 8.77186 18.4885 8.24452C18.1827 7.72462 18.0873 7.09838 18.312 6.53869L18.95 4.95016C18.97 4.89016 18.98 4.83016 18.98 4.77016C18.98 4.60016 18.89 4.43016 18.73 4.34016L15.27 2.34016C15.05 2.22016 14.78 2.27016 14.63 2.46016L13.5856 3.79569ZM12 9C13.6569 9 15 10.3431 15 12C15 13.6569 13.6569 15 12 15C10.3431 15 9 13.6569 9 12C9 10.3431 10.3431 9 12 9Z" fill="white"/>
</g>
<defs>
<clipPath id="clip0_789_61">
<rect width="24" height="24" fill="white" transform="matrix(0 -1 1 0 0 24)"/>
</clipPath>
</defs>
</svg>
